<?xml version="1.0" encoding="UTF-8" standalone="no"?>
<svg
   width="1080"
   zoomAndPan="magnify"
   viewBox="0 0 810 809.999993"
   height="1080"
   preserveAspectRatio="xMidYMid meet"
   version="1.0"
   id="svg198"
   sodipodi:docname="Bethink Plugin Icons S1.svg"
   inkscape:export-filename="Bethink Plugin Icons S1.png"
   inkscape:export-xdpi="18.962963"
   inkscape:export-ydpi="18.962963"
   inkscape:version="1.2.1 (9c6d41e, 2022-07-14)"
   xmlns:inkscape="http://www.inkscape.org/namespaces/inkscape"
   xmlns:sodipodi="http://sodipodi.sourceforge.net/DTD/sodipodi-0.dtd"
   xmlns="http://www.w3.org/2000/svg"
   xmlns:svg="http://www.w3.org/2000/svg">
  <defs
     id="defs202" />
  <sodipodi:namedview
     id="namedview200"
     pagecolor="#505050"
     bordercolor="#ffffff"
     borderopacity="1"
     inkscape:showpageshadow="0"
     inkscape:pageopacity="0"
     inkscape:pagecheckerboard="1"
     inkscape:deskcolor="#505050"
     showgrid="false"
     inkscape:zoom="0.95092593"
     inkscape:cx="412.2298"
     inkscape:cy="627.28335"
     inkscape:window-width="2449"
     inkscape:window-height="1429"
     inkscape:window-x="0"
     inkscape:window-y="25"
     inkscape:window-maximized="0"
     inkscape:current-layer="svg198" />
  <rect
     x="-81"
     width="972"
     fill="#ffffff"
     y="-80.999999"
     height="971.999992"
     fill-opacity="1"
     id="rect182" />
  <rect
     x="-81"
     width="972"
     fill="#ffcfd6"
     y="-80.999999"
     height="971.999992"
     fill-opacity="1"
     id="rect184" />
  <path
     fill="#d3006e"
     d="M 252.238281 419.832031 C 254.128906 420.910156 255.207031 422.257812 256.285156 424.144531 C 260.597656 431.695312 265.183594 438.707031 269.226562 446.257812 C 273.542969 454.886719 277.585938 463.515625 280.015625 472.953125 C 282.980469 484.007812 284.597656 495.0625 284.867188 506.386719 C 285.136719 511.78125 285.40625 516.90625 285.40625 522.296875 C 285.40625 527.691406 284.867188 533.082031 284.058594 538.476562 C 284.058594 539.285156 283.519531 540.363281 283.519531 541.171875 C 283.519531 551.148438 281.09375 560.585938 280.015625 570.292969 C 279.476562 575.6875 277.585938 581.082031 277.046875 586.472656 C 276.507812 593.214844 275.160156 599.957031 275.429688 606.699219 C 275.429688 611.011719 275.699219 615.054688 277.046875 619.101562 C 278.394531 623.414062 280.554688 627.191406 284.058594 629.886719 C 286.753906 632.042969 288.914062 634.203125 291.878906 635.820312 C 293.765625 636.898438 295.921875 637.707031 298.082031 637.707031 C 302.664062 637.707031 307.25 638.246094 311.5625 636.628906 C 312.640625 636.359375 313.71875 636.089844 314.796875 636.089844 C 319.113281 635.820312 322.078125 632.851562 325.585938 630.964844 C 326.125 630.695312 326.664062 629.886719 326.933594 629.347656 C 328.28125 626.921875 329.628906 624.226562 331.246094 621.796875 C 333.675781 617.753906 335.832031 613.4375 337.449219 609.125 C 339.335938 603.730469 342.574219 599.148438 345.808594 594.5625 C 347.425781 592.136719 348.773438 589.710938 350.121094 587.011719 C 350.933594 585.125 351.742188 582.96875 352.28125 580.8125 C 352.820312 578.382812 353.359375 575.957031 355.246094 573.800781 C 356.863281 571.914062 356.59375 569.484375 356.863281 567.058594 C 357.132812 558.160156 355.246094 549.261719 354.4375 540.363281 C 353.898438 536.050781 353.628906 531.734375 353.898438 527.152344 C 354.167969 518.792969 352.820312 510.433594 351.472656 502.34375 C 349.3125 490.210938 346.617188 478.074219 344.460938 465.941406 C 343.382812 460.277344 342.574219 454.347656 342.035156 448.683594 C 341.222656 439.785156 342.035156 430.886719 344.191406 421.988281 C 345.269531 416.59375 346.617188 411.203125 347.695312 406.078125 C 350.933594 392.058594 357.132812 379.382812 366.570312 368.328125 C 368.730469 365.902344 370.347656 363.472656 372.503906 361.316406 C 375.738281 358.082031 378.976562 355.113281 382.480469 351.878906 C 387.335938 347.296875 393.265625 343.519531 398.660156 339.476562 C 401.355469 337.585938 404.320312 336.777344 407.289062 336.238281 C 409.175781 335.96875 410.792969 335.160156 412.679688 334.082031 C 415.378906 332.195312 418.882812 330.847656 422.390625 330.578125 C 425.085938 330.578125 427.78125 330.039062 430.476562 329.5 C 433.984375 328.417969 437.757812 328.6875 441.265625 327.878906 C 443.152344 327.339844 445.308594 328.148438 446.925781 329.230469 C 448.542969 330.308594 450.164062 330.308594 452.050781 330.578125 C 456.632812 330.847656 461.21875 331.386719 465.800781 331.386719 C 470.117188 331.65625 473.621094 333.273438 476.589844 335.96875 C 483.058594 341.902344 488.453125 348.644531 491.417969 357.273438 C 493.035156 361.855469 494.386719 366.171875 496.003906 370.753906 C 498.160156 377.496094 498.429688 384.777344 498.96875 391.789062 C 499.238281 394.753906 498.96875 397.988281 498.96875 400.957031 C 498.96875 409.855469 498.96875 418.753906 498.96875 427.652344 C 498.96875 433.042969 498.699219 438.167969 498.160156 443.558594 C 497.621094 448.414062 498.96875 452.996094 501.125 457.3125 C 502.472656 460.007812 504.632812 461.625 507.867188 462.164062 C 510.832031 462.703125 512.722656 461.894531 514.070312 459.199219 C 515.417969 456.773438 517.035156 454.617188 518.652344 452.1875 C 522.160156 447.066406 525.394531 441.941406 529.710938 437.089844 C 538.066406 427.652344 541.304688 416.054688 541.035156 403.652344 C 541.035156 399.875 540.496094 396.101562 540.226562 392.328125 C 539.957031 387.472656 539.6875 382.890625 539.6875 378.035156 C 539.6875 373.71875 539.417969 369.675781 538.878906 365.363281 C 538.335938 359.429688 538.335938 353.765625 538.878906 347.835938 C 539.417969 341.632812 539.957031 335.429688 540.496094 329.230469 C 541.035156 320.601562 543.730469 312.511719 546.425781 304.421875 C 548.855469 297.410156 551.550781 290.667969 553.4375 283.65625 C 557.214844 270.175781 563.953125 258.042969 574.199219 248.332031 C 577.976562 244.558594 581.75 240.785156 584.988281 236.738281 C 588.492188 232.15625 593.347656 228.917969 598.46875 225.683594 C 603.863281 222.449219 609.792969 220.558594 615.457031 218.132812 C 615.996094 217.863281 616.804688 217.863281 617.613281 217.59375 C 621.660156 217.324219 625.433594 216.246094 629.210938 214.628906 C 631.636719 213.550781 634.0625 213.011719 636.757812 213.820312 C 638.648438 214.359375 640.804688 214.359375 642.691406 214.628906 C 648.625 214.628906 654.285156 216.515625 659.949219 217.324219 C 660.757812 217.324219 661.566406 217.59375 662.105469 217.863281 C 664.535156 220.828125 668.847656 219.75 671.273438 222.449219 C 673.972656 225.414062 677.476562 228.109375 677.476562 232.964844 C 677.476562 235.929688 678.824219 238.894531 678.554688 242.132812 C 678.285156 245.90625 678.015625 249.144531 675.589844 252.378906 C 673.972656 254.265625 673.433594 256.960938 671.542969 258.851562 C 668.308594 262.625 664.535156 265.320312 659.949219 267.480469 C 654.554688 269.90625 649.164062 270.445312 643.5 270.445312 C 638.648438 270.445312 633.792969 271.253906 628.671875 270.984375 C 627.589844 270.984375 626.511719 271.523438 625.703125 272.332031 C 620.851562 277.996094 615.1875 282.847656 610.875 289.320312 C 608.984375 292.015625 607.90625 294.714844 607.367188 297.949219 C 606.289062 302.535156 604.671875 307.117188 602.785156 311.433594 C 598.738281 321.410156 596.582031 331.65625 595.773438 342.171875 C 595.234375 350.800781 595.234375 359.160156 595.773438 367.789062 C 596.3125 378.035156 596.042969 388.550781 596.3125 399.066406 C 596.582031 406.078125 596.042969 413.359375 594.964844 420.371094 C 594.425781 424.683594 593.078125 429 591.996094 433.042969 C 590.648438 438.4375 588.492188 443.828125 586.605469 448.953125 C 584.988281 452.996094 582.828125 456.773438 580.132812 460.277344 C 576.628906 464.863281 573.121094 469.445312 569.617188 474.300781 C 567.730469 476.996094 565.84375 479.691406 564.222656 482.390625 C 561.257812 487.511719 557.214844 491.828125 555.59375 497.488281 C 555.324219 498.296875 554.515625 499.109375 553.976562 499.648438 C 552.628906 501.265625 551.28125 502.613281 550.203125 504.230469 C 547.503906 507.464844 544.269531 509.894531 540.226562 511.511719 C 532.136719 514.746094 523.777344 516.90625 514.878906 517.714844 C 508.945312 518.253906 503.285156 518.792969 497.351562 518.792969 C 489.261719 518.792969 481.980469 516.363281 474.96875 512.320312 C 473.082031 511.242188 471.464844 509.625 469.039062 510.164062 C 468.5 510.433594 467.691406 509.355469 467.691406 508.546875 C 468.230469 506.386719 467.152344 505.308594 465.800781 503.691406 C 463.644531 501.535156 462.296875 499.109375 460.949219 496.410156 C 459.0625 492.636719 456.902344 488.589844 454.476562 485.085938 C 450.433594 478.34375 447.464844 471.0625 446.386719 463.246094 C 445.847656 459.46875 445.847656 455.695312 445.847656 451.917969 C 445.847656 438.707031 446.117188 425.761719 445.847656 412.550781 C 445.847656 407.964844 446.117188 403.382812 446.117188 398.796875 C 446.117188 394.753906 444.5 390.976562 443.152344 387.203125 C 442.613281 386.125 441.804688 385.585938 440.726562 385.585938 C 437.21875 385.316406 433.714844 385.046875 430.476562 384.777344 C 428.859375 384.777344 427.511719 384.777344 426.433594 386.125 C 421.308594 387.472656 418.074219 391.515625 414.839844 395.5625 C 412.949219 397.71875 411.332031 400.144531 409.445312 402.304688 C 407.019531 405 405.671875 408.503906 404.59375 412.011719 C 402.164062 420.371094 401.085938 428.730469 399.46875 437.089844 C 398.929688 439.515625 399.199219 441.941406 399.46875 444.097656 C 400.816406 454.347656 402.433594 464.59375 404.050781 474.839844 C 405.941406 485.625 407.558594 496.410156 409.445312 507.195312 C 410.253906 511.78125 410.253906 516.363281 410.253906 520.949219 C 410.253906 530.117188 410.523438 539.285156 412.410156 548.183594 C 413.761719 555.195312 413.21875 561.9375 412.949219 568.945312 C 412.949219 569.484375 412.679688 570.023438 412.679688 570.566406 C 413.21875 575.6875 411.871094 580.273438 409.984375 584.855469 C 408.367188 588.632812 407.289062 592.675781 406.210938 596.71875 C 405.132812 600.765625 403.78125 604.808594 401.625 608.316406 C 399.738281 611.550781 397.851562 614.785156 395.964844 618.292969 C 394.074219 621.527344 391.648438 624.226562 391.378906 628 C 391.378906 628.808594 390.570312 629.617188 390.03125 630.425781 C 385.984375 637.707031 382.210938 644.71875 378.167969 652 C 376.816406 654.425781 374.660156 656.042969 373.582031 658.738281 C 373.3125 659.546875 372.773438 659.816406 371.964844 660.089844 C 370.078125 660.359375 368.726562 661.707031 367.378906 663.054688 C 358.480469 671.414062 348.773438 678.425781 337.988281 683.816406 C 333.945312 685.703125 329.898438 687.324219 325.585938 688.402344 C 321.808594 689.480469 318.304688 690.558594 314.796875 691.90625 C 304.550781 695.410156 293.765625 696.761719 282.980469 694.332031 C 280.015625 693.523438 277.046875 692.445312 274.351562 690.828125 C 269.496094 688.132812 264.914062 685.164062 260.867188 681.660156 C 256.824219 678.15625 252.511719 675.1875 248.464844 671.953125 C 248.195312 671.683594 247.925781 671.414062 247.65625 671.414062 C 246.308594 670.875 244.421875 671.144531 243.339844 669.527344 C 241.453125 666.828125 238.488281 664.671875 237.140625 661.4375 C 235.523438 657.660156 232.285156 654.695312 230.128906 651.191406 C 228.78125 649.03125 227.703125 646.875 226.894531 644.179688 C 224.195312 634.742188 223.117188 625.304688 222.039062 615.597656 C 221.5 609.664062 221.230469 604 221.5 598.070312 C 221.5 595.910156 221.769531 593.753906 222.039062 591.597656 C 222.578125 587.011719 223.386719 582.160156 223.925781 577.574219 C 224.734375 570.023438 226.894531 563.015625 227.972656 555.464844 C 228.78125 550.339844 229.320312 545.488281 230.128906 540.363281 C 230.667969 537.128906 230.9375 533.890625 231.476562 530.65625 C 233.09375 521.488281 232.824219 512.589844 232.285156 503.421875 C 231.746094 498.296875 230.128906 493.445312 228.78125 488.589844 C 227.972656 485.894531 227.164062 483.46875 226.085938 480.769531 C 225.542969 479.152344 225.003906 477.804688 223.65625 476.457031 C 222.847656 475.648438 222.039062 475.109375 220.691406 475.648438 C 220.152344 475.917969 219.613281 476.1875 219.074219 476.1875 C 214.757812 477.535156 212.0625 480.230469 210.175781 484.546875 C 209.097656 487.511719 207.476562 490.480469 206.128906 493.445312 C 204.242188 497.757812 203.164062 502.074219 202.625 506.65625 C 201.546875 517.714844 196.960938 526.882812 188.332031 533.890625 C 186.445312 535.511719 184.289062 537.128906 182.132812 538.476562 C 178.085938 541.171875 173.503906 542.25 168.648438 540.902344 C 162.988281 539.285156 157.59375 537.128906 153.277344 532.8125 C 150.851562 530.386719 148.964844 527.691406 148.15625 524.453125 C 147.078125 520.410156 146.539062 516.363281 146.808594 512.050781 C 147.347656 505.039062 149.503906 498.566406 151.390625 491.828125 C 153.546875 483.46875 156.785156 475.648438 160.289062 467.828125 C 161.90625 463.785156 164.066406 460.007812 165.953125 455.964844 C 170.265625 447.875 175.929688 440.863281 182.132812 434.121094 C 183.210938 433.042969 184.289062 432.234375 185.636719 431.425781 C 188.332031 429.808594 191.03125 428.191406 192.917969 426.03125 C 194.804688 423.875 197.230469 422.527344 199.929688 421.71875 C 205.589844 420.101562 211.253906 417.671875 216.917969 416.054688 C 221.769531 414.707031 226.625 413.359375 231.746094 413.089844 C 233.363281 413.089844 234.984375 413.089844 236.601562 413.359375 "
     fill-opacity="1"
     fill-rule="nonzero"
     id="path186" />
  <path
     fill="#d3006e"
     d="M 271.117188 269.097656 C 276.507812 272.871094 282.171875 276.109375 287.292969 280.152344 C 290.53125 282.847656 294.035156 285.816406 298.082031 287.433594 C 298.351562 287.433594 298.621094 287.703125 298.890625 287.972656 C 306.171875 293.90625 314.257812 299.027344 320.460938 306.039062 C 321.808594 307.65625 322.886719 309.273438 324.238281 310.890625 C 326.664062 314.398438 328.820312 318.171875 332.324219 321.140625 C 333.136719 321.949219 333.675781 322.757812 334.214844 323.835938 C 337.449219 328.6875 339.875 334.082031 342.574219 339.207031 C 344.460938 342.980469 344.191406 347.296875 345.269531 351.339844 C 345.808594 354.304688 345.808594 357.003906 345.269531 359.96875 C 345 362.125 344.191406 364.28125 343.382812 366.171875 C 340.683594 371.5625 337.449219 376.417969 332.324219 379.382812 C 328.28125 381.808594 324.238281 385.046875 318.84375 384.777344 C 312.640625 386.933594 306.710938 385.585938 300.507812 384.507812 C 296.460938 383.699219 292.957031 382.078125 290.261719 378.84375 C 288.644531 376.6875 286.484375 374.800781 284.867188 372.910156 C 281.363281 368.867188 280.015625 364.011719 279.476562 358.890625 C 278.933594 352.6875 276.507812 347.835938 272.464844 343.25 C 269.765625 340.015625 266.53125 337.046875 263.027344 334.351562 C 256.285156 328.957031 249.273438 323.566406 242.261719 318.441406 C 225.003906 305.769531 206.128906 297.140625 185.367188 292.824219 C 177.007812 290.9375 168.648438 289.320312 160.289062 287.703125 C 158.132812 287.164062 156.515625 286.355469 154.898438 284.46875 C 153.007812 282.578125 151.121094 280.421875 149.234375 278.535156 C 147.617188 276.917969 146.539062 275.570312 147.078125 274.21875 C 147.347656 272.601562 147.347656 272.0625 147.617188 271.523438 C 147.886719 270.175781 147.078125 269.367188 146 269.097656 C 143.300781 268.289062 142.222656 266.402344 141.953125 263.972656 C 141.683594 262.355469 141.414062 260.738281 141.414062 259.121094 C 141.414062 255.613281 141.683594 251.839844 144.648438 249.144531 C 145.460938 248.332031 146.539062 247.523438 146.808594 246.175781 C 146.808594 245.636719 147.078125 245.097656 147.886719 245.097656 C 149.773438 245.636719 150.3125 244.289062 151.121094 242.941406 C 153.007812 240.515625 155.4375 238.625 158.941406 238.625 C 161.097656 238.625 163.257812 237.546875 165.144531 236.46875 C 169.457031 233.773438 174.3125 234.3125 178.894531 235.660156 C 184.558594 237.546875 190.222656 238.625 195.882812 239.976562 C 199.929688 241.054688 203.972656 242.402344 208.019531 242.941406 C 215.566406 244.289062 222.847656 246.175781 230.128906 248.875 C 234.441406 250.492188 238.757812 251.570312 243.070312 252.648438 C 246.847656 253.726562 250.082031 256.152344 253.589844 258.3125 "
     fill-opacity="1"
     fill-rule="nonzero"
     id="path188" />
  <path
     fill="#d3006e"
     d="M 422.117188 272.871094 C 422.660156 282.847656 417.535156 289.859375 410.253906 295.792969 C 408.367188 297.410156 405.941406 298.21875 403.242188 299.027344 C 398.390625 300.375 393.535156 301.453125 388.144531 300.914062 C 381.941406 300.375 376.816406 297.679688 373.042969 293.09375 C 369.269531 288.511719 366.03125 283.386719 363.875 277.726562 C 362.257812 273.410156 360.101562 269.097656 357.671875 265.050781 C 354.976562 260.738281 353.359375 255.882812 351.472656 251.03125 C 349.582031 246.445312 346.886719 242.402344 344.191406 238.355469 C 343.113281 236.199219 341.492188 234.3125 340.414062 232.425781 C 338.527344 228.917969 336.371094 225.414062 333.675781 222.71875 C 333.675781 222.179688 333.675781 221.910156 333.40625 221.367188 C 326.933594 210.851562 317.496094 202.761719 309.136719 194.132812 C 302.933594 187.664062 296.730469 181.460938 290.261719 174.988281 C 287.023438 171.753906 283.519531 168.25 280.015625 165.28125 C 278.394531 163.933594 277.316406 162.585938 276.507812 160.429688 C 275.699219 158.269531 274.890625 155.84375 272.734375 154.765625 C 272.464844 154.496094 272.195312 153.957031 271.925781 153.417969 C 271.117188 149.101562 270.304688 144.789062 269.765625 140.472656 C 269.226562 137.238281 271.386719 134.542969 273.003906 132.113281 C 274.351562 130.226562 276.507812 128.878906 277.585938 126.722656 C 277.855469 126.183594 278.664062 125.644531 279.476562 125.644531 C 281.632812 125.914062 283.25 124.566406 284.867188 123.488281 C 286.753906 121.867188 289.183594 121.597656 291.609375 121.058594 C 294.84375 120.25 298.082031 120.519531 300.777344 118.09375 C 301.585938 117.554688 302.664062 117.554688 303.472656 117.824219 C 306.980469 118.902344 310.214844 120.25 313.71875 121.597656 C 315.609375 122.40625 317.226562 123.488281 318.035156 125.644531 C 318.84375 127.800781 320.730469 129.148438 322.078125 130.765625 C 327.472656 136.429688 333.136719 141.824219 338.796875 147.484375 C 339.605469 148.292969 340.414062 148.832031 341.222656 149.640625 C 349.582031 156.652344 357.402344 164.472656 365.222656 172.023438 C 369.808594 176.335938 374.660156 180.652344 378.4375 185.773438 C 380.054688 188.203125 381.941406 190.359375 383.558594 192.785156 C 385.175781 195.484375 386.796875 198.179688 388.953125 200.335938 C 391.378906 203.03125 393.265625 205.730469 394.882812 208.695312 C 395.964844 210.582031 397.042969 212.46875 398.390625 214.359375 C 400.007812 217.054688 401.894531 219.75 403.511719 222.71875 C 407.019531 229.726562 411.601562 236.46875 414.839844 244.019531 C 416.996094 249.144531 419.421875 253.996094 421.308594 259.121094 C 421.847656 263.433594 422.660156 268.019531 422.117188 272.871094 Z M 422.117188 272.871094 "
     fill-opacity="1"
     fill-rule="nonzero"
     id="path190" />
  <path
     fill="#d3006e"
     d="M 486.835938 275.296875 C 483.867188 275.570312 480.902344 274.488281 477.9375 274.757812 C 476.589844 275.027344 475.507812 274.21875 474.429688 273.679688 C 468.230469 269.90625 464.722656 263.972656 462.296875 257.230469 C 461.757812 255.882812 461.488281 254.535156 460.949219 252.917969 C 459.871094 249.953125 459.601562 246.984375 460.140625 243.75 C 460.679688 239.164062 460.949219 234.851562 460.140625 230.265625 C 459.332031 225.144531 459.332031 219.75 459.0625 214.359375 C 458.792969 208.425781 460.140625 202.761719 461.488281 197.101562 C 463.644531 189.28125 466.609375 181.460938 470.925781 174.449219 C 474.160156 169.328125 477.398438 164.203125 481.171875 159.621094 C 485.757812 154.226562 489.800781 148.292969 495.464844 143.980469 C 498.429688 139.664062 503.015625 136.699219 506.519531 132.65625 C 510.023438 128.609375 513.800781 125.105469 517.574219 121.328125 C 519.191406 119.710938 520.539062 118.09375 521.890625 116.476562 C 524.316406 113.507812 526.742188 110.542969 531.058594 110.542969 C 531.867188 110.542969 532.945312 110.273438 533.753906 109.734375 C 536.179688 107.847656 539.148438 107.847656 542.113281 107.578125 C 544.539062 107.578125 547.234375 106.5 549.394531 105.691406 C 552.898438 104.339844 556.132812 105.148438 559.371094 106.769531 C 563.953125 109.195312 567.460938 112.429688 569.078125 117.285156 C 570.15625 119.980469 571.234375 122.675781 571.503906 125.644531 C 571.503906 128.339844 571.503906 130.765625 570.425781 133.195312 C 568.808594 136.699219 568.539062 140.742188 565.84375 143.441406 C 565.574219 143.710938 565.574219 144.25 565.574219 144.519531 C 566.921875 147.214844 565.03125 147.484375 563.144531 147.753906 C 562.066406 147.753906 561.257812 148.5625 560.449219 149.371094 C 558.023438 151.800781 555.59375 154.496094 553.4375 156.921875 C 546.425781 164.742188 539.417969 172.5625 532.40625 180.652344 C 527.820312 186.046875 523.777344 191.976562 520.269531 198.179688 C 517.304688 203.570312 515.417969 209.503906 516.496094 215.976562 C 517.035156 220.289062 517.304688 224.605469 518.113281 228.917969 C 518.652344 231.078125 518.113281 233.773438 517.84375 235.929688 C 517.574219 241.863281 517.035156 247.523438 515.957031 253.457031 C 515.6875 254.804688 515.148438 256.152344 514.339844 257.5 C 512.992188 259.660156 511.640625 261.816406 510.023438 263.972656 C 509.484375 264.78125 508.945312 265.320312 508.136719 265.859375 C 504.363281 268.558594 500.855469 271.523438 496.273438 272.601562 C 494.925781 272.871094 493.847656 273.140625 492.765625 273.949219 C 491.148438 275.296875 489.261719 275.570312 486.835938 275.296875 Z M 486.835938 275.296875 "
     fill-opacity="1"
     fill-rule="nonzero"
     id="path192" />
  <path
     fill="#d3006e"
     d="M 481.710938 608.855469 C 480.902344 603.460938 482.25 598.339844 485.757812 593.753906 C 486.566406 592.675781 487.105469 591.597656 487.644531 590.519531 C 489.53125 585.125 493.84375 582.699219 498.429688 580.542969 C 500.855469 579.464844 503.285156 578.382812 505.980469 577.574219 C 515.148438 574.878906 524.046875 575.6875 532.675781 579.460938 C 534.832031 580.273438 537.257812 581.082031 539.148438 582.429688 C 543.730469 586.203125 547.234375 590.789062 548.585938 596.71875 C 549.394531 599.957031 550.472656 602.921875 551.011719 606.15625 C 552.628906 613.976562 550.742188 620.988281 545.886719 627.191406 C 544.808594 628.539062 543.730469 629.617188 542.921875 630.964844 C 539.417969 636.359375 534.292969 639.863281 528.089844 641.480469 C 524.855469 642.292969 521.351562 643.101562 517.84375 643.640625 C 511.101562 644.71875 504.902344 643.371094 498.96875 639.863281 C 494.113281 637.167969 490.339844 633.121094 486.835938 628.808594 C 486.296875 628.269531 485.757812 627.730469 485.757812 626.921875 C 484.40625 621.257812 480.632812 616.40625 481.710938 610.203125 C 481.710938 609.664062 481.710938 609.394531 481.710938 608.855469 Z M 481.710938 608.855469 "
     fill-opacity="1"
     fill-rule="nonzero"
     id="path194" />
  <path
     fill="#d3006e"
     d="M 211.523438 302.804688 C 212.332031 302.804688 212.871094 303.34375 212.601562 304.152344 C 212.601562 304.691406 212.0625 304.960938 211.523438 304.960938 C 210.714844 304.960938 210.175781 304.421875 210.445312 303.613281 C 210.445312 303.074219 210.984375 302.804688 211.523438 302.804688 Z M 211.523438 302.804688 "
     fill-opacity="1"
     fill-rule="nonzero"
     id="path196" />
</svg>
